<?xml version="1.0" encoding="UTF-8"?>
<svg width="800" height="600" viewBox="0 0 800 600" fill="none" xmlns="http://www.w3.org/2000/svg">
  <!-- Background Elements -->
  <path d="M400 550C550 550 670 430 670 280C670 130 550 10 400 10C250 10 130 130 130 280C130 430 250 550 400 550Z" fill="#E6EDF7"/>
  
  <!-- Medical Cross -->
  <path d="M380 100H420V240H560V280H420V420H380V280H240V240H380V100Z" fill="#3B82F6"/>
  
  <!-- Healthcare Professional 1 -->
  <circle cx="300" cy="300" r="60" fill="#1D4ED8"/>
  <path d="M300 380C350 380 390 420 390 470H210C210 420 250 380 300 380Z" fill="#1D4ED8"/>
  
  <!-- Healthcare Professional 2 -->
  <circle cx="500" cy="300" r="60" fill="#3B82F6"/>
  <path d="M500 380C550 380 590 420 590 470H410C410 420 450 380 500 380Z" fill="#3B82F6"/>
  
  <!-- Stethoscope -->
  <path d="M350 200C350 180 370 160 400 160C430 160 450 180 450 200C450 220 430 240 400 240C370 240 350 220 350 200Z" stroke="#60A5FA" stroke-width="8" fill="none"/>
  <path d="M400 240V280C400 320 370 350 330 350" stroke="#60A5FA" stroke-width="8" fill="none"/>
  
  <!-- Clipboard -->
  <rect x="600" y="200" width="80" height="100" rx="10" fill="#93C5FD"/>
  <rect x="615" y="220" width="50" height="5" rx="2.5" fill="white"/>
  <rect x="615" y="235" width="50" height="5" rx="2.5" fill="white"/>
  <rect x="615" y="250" width="50" height="5" rx="2.5" fill="white"/>
  
  <!-- Decorative Elements -->
  <circle cx="150" cy="150" r="20" fill="#DBEAFE"/>
  <circle cx="650" cy="450" r="20" fill="#DBEAFE"/>
  <circle cx="200" cy="500" r="15" fill="#BFDBFE"/>
  <circle cx="600" cy="100" r="15" fill="#BFDBFE"/>
</svg>
